# xmcd CD database file
#
# Track frame offsets:
#	150
#	33324
#	65252
#	92736
#	124471
#	157826
#	190354
#	220746
#	251330
#	285811
#
# Disc length: 4229 seconds
#
# Revision: 1
# Processed by: cddbd v1.5.2PL0 Copyright (c) Steve Scherf et al.
# Submitted via: CDex 1.70beta2
#
DISCID=8110830a
DTITLE=Chris Chabris - The Invisible Gorilla
DYEAR=2010
DGENRE=Audiobook
TTITLE0=Invisible Gorilla D2T01
TTITLE1=Invisible Gorilla D2T02
TTITLE2=Invisible Gorilla D2T03
TTITLE3=Invisible Gorilla D2T04
TTITLE4=Invisible Gorilla D2T05
TTITLE5=Invisible Gorilla D2T06
TTITLE6=Invisible Gorilla D2T07
TTITLE7=Invisible Gorilla D2T08
TTITLE8=Invisible Gorilla D2T09
TTITLE9=Invisible Gorilla D2T10
EXTD=YEAR: 2010
EXTT0=
EXTT1=
EXTT2=
EXTT3=
EXTT4=
EXTT5=
EXTT6=
EXTT7=
EXTT8=
EXTT9=
PLAYORDER=
